#!OML:ASF F:\VICON\USERDATA\INSTALL\rory3\rory3.ASF
:FULLY-SPECIFIED
:DEGREES
4420
root -0.523948 18.626 6.14814 -3.43449 -40.626 11.9251
lowerback 10.86 -3.13052 0.482798
upperback 3.06484 -3.99567 6.07586
thorax -2.46204 -2.05144 6.61234
lowerneck -15.5951 3.7422 -3.75043
upperneck 20.9715 3.77081 9.57597
head 8.84887 2.46958 4.3514
rclavicle -2.22639e-014 -6.67916e-014
rhumerus -11.9342 14.4958 -70.7067
rradius 50.8343
rwrist -1.81876
rhand -41.355 357.078
rfingers 7.12502
rthumb -14.2737 -752.412
lclavicle -2.22639e-014 -6.67916e-014
lhumerus 45.474 -26.3637 12.2652
lradius 58.1656
lwrist -37.1449
lhand -44.521 30.8566
lfingers 7.12502
lthumb -17.3227 60.1046
rfemur -24.3438 29.9481 0.587266
rtibia 33.8197
rfoot -15.2175 -7.68083
rtoes -10.9705
lfemur -0.896114 8.94416 -21.1464
ltibia 18.4172
lfoot -14.6884 29.885
ltoes -7.11233
4421
root -0.492307 18.6197 6.13458 -3.29484 -40.4487 11.7614
lowerback 10.8575 -3.21364 0.557758
upperback 3.11362 -4.10136 6.06023
thorax -2.40452 -2.106 6.56273
lowerneck -15.4735 3.65019 -3.88789
upperneck 20.745 3.72008 9.46182
head 8.75212 2.42094 4.31565
rclavicle -3.65764e-014 -5.725e-014
rhumerus -11.7806 14.805 -70.8872
rradius 50.8287
rwrist -1.78758
rhand -40.4094 357.786
rfingers 7.12502
rthumb -13.3624 -751.766
lclavicle -3.65764e-014 -5.725e-014
lhumerus 45.913 -28.1682 11.5506
lradius 57.813
lwrist -37.1868
lhand -44.2972 30.3365
lfingers 7.12502
lthumb -17.1073 59.6033
rfemur -24.4119 29.8464 0.599353
rtibia 33.7789
rfoot -15.1857 -7.76823
rtoes -11.2597
lfemur -1.08586 8.77238 -21.084
ltibia 18.4797
lfoot -15.0038 29.8111
ltoes -6.32064
4422
root -0.460387 18.6186 6.12192 -3.2342 -40.2599 11.731
lowerback 10.8812 -3.25873 0.559627
upperback 3.14157 -4.16233 5.97924
thorax -2.38825 -2.136 6.48243
lowerneck -15.4389 3.55121 -3.88435
upperneck 20.5522 3.61824 9.36276
head 8.69079 2.36238 4.26099
rclavicle -1.49486e-013 1.17681e-013
rhumerus -11.7837 15.0714 -71.065
rradius 50.8357
rwrist -1.77035
rhand -39.7664 358.612
rfingers 7.12502
rthumb -12.7426 -750.979
lclavicle -1.49486e-013 1.17681e-013
lhumerus 46.5577 -29.9535 10.7045
lradius 57.4362
lwrist -37.595
lhand -44.1328 29.8976
lfingers 7.12502
lthumb -16.949 59.178
rfemur -24.4662 29.7214 0.493981
rtibia 33.7251
rfoot -15.2078 -7.83586
rtoes -11.7341
lfemur -1.29394 8.62868 -21.1398
ltibia 18.5386
lfoot -14.7917 29.8408
ltoes -6.77688
4423
root -0.427953 18.6185 6.11097 -3.21824 -40.0841 11.7628
lowerback 10.909 -3.2936 0.522423
upperback 3.17808 -4.21438 5.89776
thorax -2.3636 -2.16191 6.42277
lowerneck -15.4504 3.45755 -3.99782
upperneck 20.3672 3.52951 9.37255
head 8.63407 2.31344 4.26672
rclavicle -7.55382e-014 2.8625e-014
rhumerus -11.935 15.4485 -71.1536
rradius 51.0577
rwrist -1.82508
rhand -39.9295 359.023
rfingers 7.12502
rthumb -12.8998 -750.558
lclavicle -7.55382e-014 2.8625e-014
lhumerus 47.2768 -31.6972 9.86332
lradius 57.057
lwrist -37.7872
lhand -44.1941 29.8463
lfingers 7.12502
lthumb -17.008 59.1217
rfemur -24.5022 29.6175 0.330005
rtibia 33.6443
rfoot -15.1558 -7.88301
rtoes -11.8987
lfemur -1.5098 8.38841 -21.2733
ltibia 18.636
lfoot -14.862 29.9066
ltoes -6.80927
4424
root -0.39595 18.6172 6.09878 -3.06337 -39.9801 11.599
lowerback 10.925 -3.32715 0.568846
upperback 3.25246 -4.25814 5.90032
thorax -2.29304 -2.1865 6.40183
lowerneck -15.4849 3.38015 -4.24826
upperneck 20.0876 3.48677 9.46699
head 8.54087 2.28535 4.32618
rclavicle -1.66979e-014 -5.725e-014
rhumerus -11.9446 15.8622 -71.1816
rradius 51.3244
rwrist -1.92317
rhand -39.9703 359.044
rfingers 7.12502
rthumb -12.9391 -750.535
lclavicle -1.66979e-014 -5.725e-014
lhumerus 47.8543 -33.2926 9.27613
lradius 56.6293
lwrist -37.9454
lhand -44.2548 29.6535
lfingers 7.12502
lthumb -17.0665 58.9239
rfemur -24.5926 29.5729 0.31569
rtibia 33.5565
rfoot -14.9656 -7.90074
rtoes -11.5509
lfemur -1.71266 8.17976 -21.26
ltibia 18.7054
lfoot -15.0888 29.9834
ltoes -6.34324
4425
root -0.365419 18.6176 6.08523 -2.88912 -39.9049 11.3838
lowerback 10.981 -3.37055 0.637797
upperback 3.34405 -4.31258 5.86986
thorax -2.22969 -2.21614 6.33636
lowerneck -15.6595 3.35345 -4.22764
upperneck 19.866 3.48529 9.38288
head 8.50088 2.28123 4.29062
rclavicle 4.21423e-014 -6.36111e-015
rhumerus -11.7854 16.2217 -71.386
rradius 51.3873
rwrist -1.95475
rhand -40.2045 358.213
rfingers 7.12502
rthumb -13.165 -751.351
lclavicle 4.21423e-014 -6.36111e-015
lhumerus 48.2997 -34.7527 8.74574
lradius 56.2613
lwrist -38.4891
lhand -44.139 28.9544
lfingers 7.12502
lthumb -16.955 58.2343
rfemur -24.6812 29.5883 0.360504
rtibia 33.4817
rfoot -14.8008 -8.0119
rtoes -11.2625
lfemur -1.88998 8.02752 -21.1879
ltibia 18.7892
lfoot -15.4293 30.0048
ltoes -5.62368
4426
root -0.334435 18.6164 6.07822 -2.8689 -39.8303 11.3961
lowerback 10.9826 -3.47906 0.554863
upperback 3.41053 -4.47077 5.79493
thorax -2.14451 -2.29717 6.31856
lowerneck -15.6865 3.42516 -4.15908
upperneck 19.6179 3.62499 9.20672
head 8.41705 2.33494 4.22459
rclavicle -1.08934e-013 0
rhumerus -11.5557 16.7308 -71.6951
rradius 51.2806
rwrist -1.8762
rhand -40.4002 357.76
rfingers 7.12502
rthumb -13.3536 -751.792
lclavicle -1.08934e-013 0
lhumerus 48.5824 -36.2112 8.00654
lradius 56.2405
lwrist -38.8593
lhand -43.8111 28.4072
lfingers 7.12502
lthumb -16.6394 57.7139
rfemur -24.7306 29.6145 0.19817
rtibia 33.416
rfoot -14.7739 -8.08781
rtoes -11.1241
lfemur -2.06461 7.92534 -21.3234
ltibia 18.9134
lfoot -15.662 30.0884
ltoes -5.43002
